<svg xmlns="http://www.w3.org/2000/svg" width="120" height="92" fill="none" viewBox="0 0 120 92"><path fill="#C8D2D1" fill-opacity="0.7" d="M30.683 15.752C6.966 25.044.291 46.165 0 55.55c0 4.574 2.865 9.468 7.763 13.605 5.075 4.286 15.944 11.488 21.3 13.76 5.357 2.273 24.416 9.343 32.637 8.712s10.962-3.03 17.688-7.575c5.381-3.636 20.014-21.041 26.657-29.29 3.197-5.092 10.165-16.614 12.457-21.967s1.453-9.047.747-10.226c-1.993-3.83-10.065-12.423-26.408-16.16-20.428-4.67-32.511-2.272-62.158 9.343"/><path fill="#7A938D" fill-opacity="0.7" d="M51.852.002C27.867-.2 13.412 13.638 9.182 20.582-.372 32.4 12.892 52.986 19.444 61.108c6.096 6.481 19.545 19.9 34.772 27.274 15.227 7.373 33.796.63 41.178-3.662 7.091-4.377 21.273-16.742 21.273-31.185 0-14.444-9.621-26.893-14.431-31.312C95.436 14.9 75.837.204 51.852.003"/><path fill="#fff" d="M28.04 41.433q.93 0 1.64.31.72.31 1.11.87.4.55.4 1.28v.04q0 .79-.4 1.36-.39.57-1.1.86t-1.65.29h-2.91v2.39h-2.85v-7.4zm-.56 3.05h.47q.4 0 .55-.13.16-.14.16-.42t-.14-.4a.64.64 0 0 0-.36-.15 6 6 0 0 0-.68-.03h-.31q-.3.01-2.04.01v1.12zm9.004-3.21q1.41 0 2.54.51 1.131.5 1.77 1.39a3.3 3.3 0 0 1 .64 1.99q0 1.101-.64 1.98-.639.88-1.77 1.39-1.13.5-2.54.5-1.35 0-2.5-.5-1.14-.51-1.82-1.39a3.2 3.2 0 0 1-.67-1.98q0-1.1.67-1.99.68-.89 1.82-1.39 1.15-.51 2.5-.51m.01 5.64q.48 0 .92-.21.45-.21.73-.61.28-.399.28-.93 0-.54-.28-.93a1.8 1.8 0 0 0-.73-.61 2.11 2.11 0 0 0-1.84 0 1.9 1.9 0 0 0-.73.61q-.28.39-.28.93 0 .531.28.93a1.9 1.9 0 0 0 .73.61q.45.21.92.21m5.294-3.18v-2.3h8.91zm8.91-2.3v2.3h-3.01v5.1h-2.85v-5.1h-3.05v-2.3zm7.807 4.66h-4.41v.77l5.25-.03v2h-8.1v-7.4h8.1l.01 2h-5.26v.71h4.41zm4.252 2.74h-2.85v-7.4zm6.95 0h-2.85zm-2.85-3.23v-4.17h2.85v7.4h-2.85l-4.1-4.17v4.17h-2.85v-7.4h2.85zm3.398-1.87v-2.3h8.91zm8.91-2.3v2.3h-3.01v5.1h-2.85v-5.1h-3.05v-2.3zm3.397 7.4h-2.85v-7.4h2.85zm10.975 0h-2.85l-.61-1.12h-3.95l-.61 1.12h-2.85l4.01-7.4h2.85zm-5.43-4.77-1 1.83h1.99zm8.38-2.63v5.25h4.451v2.15h-7.3v-7.4zm10.65 3.55h1.62v1.23h-1.62v1.62h-1.23v-1.62h-1.62v-1.23h1.62v-1.62h1.23z"/></svg>