<svg width="120" height="92" viewBox="0 0 120 92" fill="none" xmlns="http://www.w3.org/2000/svg">
<path d="M30.6831 15.7517C6.96575 25.0435 0.290653 46.1652 0 55.5496C0.000410407 60.1244 2.86501 65.0182 7.76297 69.1548C12.8384 73.4413 23.7074 80.6434 29.0637 82.9159C34.42 85.1883 53.4786 92.2582 61.6999 91.627C69.9212 90.9957 72.6617 88.597 79.3882 84.0521C84.7695 80.4162 99.4018 63.0108 106.045 54.7626C109.242 49.6705 116.21 38.1483 118.502 32.7954C120.794 27.4425 119.955 23.7476 119.249 22.5693C117.256 18.7397 109.184 10.1463 92.8413 6.40934C72.4125 1.73816 60.3297 4.13688 30.6831 15.7517Z" fill="#C8D2D1" fill-opacity="0.7"/>
<path d="M51.8524 0.00218783C27.8673 -0.199823 13.4116 13.6379 9.18191 20.582C-0.372292 32.3998 12.8924 52.9858 19.4444 61.1082C25.5402 67.5894 38.989 81.0082 54.2161 88.3816C69.4431 95.755 88.0124 89.0129 95.3937 84.7201C102.485 80.3432 116.667 67.9785 116.667 53.5348C116.667 39.091 107.046 26.6421 102.236 22.2231C95.4351 14.9003 75.8374 0.204198 51.8524 0.00218783Z" fill="#7A938D" fill-opacity="0.7"/>
<path d="M28.0403 41.4333C28.6603 41.4333 29.207 41.5366 29.6803 41.7433C30.1603 41.95 30.5303 42.24 30.7903 42.6133C31.057 42.98 31.1903 43.4066 31.1903 43.8933V43.9333C31.1903 44.46 31.057 44.9133 30.7903 45.2933C30.5303 45.6733 30.1636 45.96 29.6903 46.1533C29.217 46.3466 28.667 46.4433 28.0403 46.4433H25.1303V48.8333H22.2803V41.4333H28.0403ZM27.4803 44.4833C27.5336 44.4833 27.6903 44.4833 27.9503 44.4833C28.217 44.4833 28.4003 44.44 28.5003 44.3533C28.607 44.26 28.6603 44.12 28.6603 43.9333C28.6603 43.7466 28.6136 43.6133 28.5203 43.5333C28.4336 43.4533 28.3136 43.4033 28.1603 43.3833C28.0136 43.3633 27.787 43.3533 27.4803 43.3533H27.1703C26.9703 43.36 26.2903 43.3633 25.1303 43.3633V44.4833H27.4703H27.4803ZM36.4844 41.2733C37.4244 41.2733 38.271 41.4433 39.0244 41.7833C39.7777 42.1166 40.3677 42.58 40.7944 43.1733C41.221 43.76 41.4344 44.4233 41.4344 45.1633C41.4344 45.8966 41.221 46.5566 40.7944 47.1433C40.3677 47.73 39.7777 48.1933 39.0244 48.5333C38.271 48.8666 37.4244 49.0333 36.4844 49.0333C35.5844 49.0333 34.751 48.8666 33.9844 48.5333C33.2244 48.1933 32.6177 47.73 32.1644 47.1433C31.7177 46.55 31.4944 45.89 31.4944 45.1633C31.4944 44.43 31.7177 43.7666 32.1644 43.1733C32.6177 42.58 33.2244 42.1166 33.9844 41.7833C34.751 41.4433 35.5844 41.2733 36.4844 41.2733ZM36.4944 46.9133C36.8144 46.9133 37.121 46.8433 37.4144 46.7033C37.7144 46.5633 37.9577 46.36 38.1444 46.0933C38.331 45.8266 38.4244 45.5166 38.4244 45.1633C38.4244 44.8033 38.331 44.4933 38.1444 44.2333C37.9577 43.9666 37.7144 43.7633 37.4144 43.6233C37.121 43.4833 36.8144 43.4133 36.4944 43.4133C36.181 43.4133 35.8744 43.4833 35.5744 43.6233C35.281 43.7633 35.0377 43.9666 34.8444 44.2333C34.6577 44.4933 34.5644 44.8033 34.5644 45.1633C34.5644 45.5166 34.6577 45.8266 34.8444 46.0933C35.0377 46.36 35.281 46.5633 35.5744 46.7033C35.8744 46.8433 36.181 46.9133 36.4944 46.9133ZM41.7885 43.7333V41.4333H50.6985L41.7885 43.7333ZM50.6985 41.4333V43.7333H47.6885V48.8333H44.8385V43.7333H41.7885V41.4333H50.6985ZM58.5051 46.0933H54.0951V46.8633L59.3451 46.8333V48.8333H51.2451V41.4333H59.3451L59.3551 43.4333H54.0951V44.1433H58.5051V46.0933ZM62.7573 48.8333H59.9073V41.4333L62.7573 48.8333ZM69.7073 48.8333H66.8573H69.7073ZM66.8573 45.6033V41.4333H69.7073V48.8333H66.8573L62.7573 44.6633V48.8333H59.9073V41.4333H62.7573L66.8573 45.6033ZM70.2553 43.7333V41.4333H79.1653L70.2553 43.7333ZM79.1653 41.4333V43.7333H76.1553V48.8333H73.3053V43.7333H70.2553V41.4333H79.1653ZM82.5619 48.8333H79.7119V41.4333H82.5619V48.8333ZM93.5366 48.8333H90.6866L90.0766 47.7133H86.1266L85.5166 48.8333H82.6666L86.6766 41.4333H89.5266L93.5366 48.8333ZM88.1066 44.0633L87.1066 45.8933H89.0966L88.1066 44.0633ZM96.4877 41.4333V46.6833H100.938V48.8333H93.6377V41.4333H96.4877ZM107.137 44.9833H108.757V46.2133H107.137V47.8333H105.907V46.2133H104.287V44.9833H105.907V43.3633H107.137V44.9833Z" fill="white"/>
</svg>
